<svg width="100%" height="100%" viewBox="0 0 390 850" fill="none" aspect-ratio="none" xmlns="http://www.w3.org/2000/svg">
<g opacity="0.6">
<path fill-rule="evenodd" clip-rule="evenodd" d="M395 -2H-2V854H395V-2ZM284.632 433.349C283.337 433.781 282 432.817 282 431.452V420.227C282 419.122 281.105 418.227 280 418.227H112C110.895 418.227 110 419.122 110 420.227V431.452C110 432.817 108.663 433.781 107.368 433.349L40.6325 411.104C39.3374 410.672 38 411.636 38 413.002V645.452C38 646.817 39.3374 647.781 40.6325 647.349L107.368 625.104C108.663 624.672 110 625.636 110 627.002V638.227C110 639.331 110.895 640.227 112 640.227H280C281.105 640.227 282 639.331 282 638.227V627.002C282 625.636 283.337 624.672 284.632 625.104L351.368 647.349C352.663 647.781 354 646.817 354 645.452V413.002C354 411.636 352.663 410.672 351.368 411.104L284.632 433.349Z" fill="black"/>
<path d="M-2 -2V-4H-4V-2H-2ZM395 -2H397V-4H395V-2ZM-2 854H-4V856H-2V854ZM395 854V856H397V854H395ZM284.632 433.349L285.265 435.247H285.265L284.632 433.349ZM107.368 433.349L106.735 435.247H106.735L107.368 433.349ZM40.6325 411.104L41.2649 409.207H41.2649L40.6325 411.104ZM40.6325 647.349L40 645.452H40L40.6325 647.349ZM107.368 625.104L108 627.002H108L107.368 625.104ZM284.632 625.104L284 627.001H284L284.632 625.104ZM351.368 647.349L352 645.452H352L351.368 647.349ZM351.368 411.104L352 413.002H352L351.368 411.104ZM-2 0H395V-4H-2V0ZM0 854V-2H-4V854H0ZM395 852H-2V856H395V852ZM393 -2V854H397V-2H393ZM280 431.452C280 434.182 282.675 436.11 285.265 435.247L284 431.452H284H280ZM280 420.227V431.452H284V420.227H280ZM280 420.227H284C284 418.018 282.209 416.227 280 416.227V420.227ZM112 420.227H280V416.227H112V420.227ZM112 420.227V416.227C109.791 416.227 108 418.018 108 420.227H112ZM112 431.452V420.227H108V431.452H112ZM106.735 435.247C109.325 436.11 112 434.182 112 431.452H108H108L106.735 435.247ZM40 413.002L106.735 435.247L108 431.452L41.2649 409.207L40 413.002ZM40 413.002H40L41.2649 409.207C38.6748 408.343 36 410.271 36 413.002H40ZM40 645.452V413.002H36V645.452H40ZM40 645.452H40H36C36 648.182 38.6748 650.11 41.2649 649.247L40 645.452ZM106.735 623.207L40 645.452L41.2649 649.247L108 627.002L106.735 623.207ZM112 627.002C112 624.271 109.325 622.343 106.735 623.207L108 627.002H108H112ZM112 638.227V627.002H108V638.227H112ZM112 638.227H108C108 640.436 109.791 642.227 112 642.227V638.227ZM280 638.227H112V642.227H280V638.227ZM280 638.227V642.227C282.209 642.227 284 640.436 284 638.227H280ZM280 627.002V638.227H284V627.002H280ZM285.265 623.207C282.675 622.343 280 624.271 280 627.002H284L284 627.001L285.265 623.207ZM352 645.452L285.265 623.207L284 627.001L350.735 649.247L352 645.452ZM352 645.452L352 645.452L350.735 649.247C353.325 650.11 356 648.182 356 645.452H352ZM352 413.002V645.452H356V413.002H352ZM352 413.002H352H356C356 410.271 353.325 408.343 350.735 409.207L352 413.002ZM285.265 435.247L352 413.002L350.735 409.207L284 431.452L285.265 435.247Z" fill="white"/>
</g>
</svg>
